# xmcd CD database file
#
# Track frame offsets:
#	150
#	13996
#	30988
#	50971
#	78792
#	96126
#	122510
#	142654
#	161345
#	175665
#
# Disc length: 2565 seconds
#
# Revision: 0
# Processed by: cddbd v1.5.1PL2 Copyright (c) Steve Scherf et al.
# Submitted via: CDex 1.51
#
DISCID=6e0a030a
DTITLE=Morrison, Van - Moondance
DYEAR=1900
DGENRE=Blues
TTITLE0=And it storned me
TTITLE1=Moondance
TTITLE2=Crazy Love
TTITLE3=Caravan
TTITLE4=Into thya Mystic
TTITLE5=Come running
TTITLE6=These dreams of you
TTITLE7=Brand new day
TTITLE8=Everyone
TTITLE9=Glad Tidings
EXTD=
EXTT0=
EXTT1=
EXTT2=
EXTT3=
EXTT4=
EXTT5=
EXTT6=
EXTT7=
EXTT8=
EXTT9=
PLAYORDER=
